<svg version="1.1" id="Layer_1" xmlns="http://www.w3.org/2000/svg" xmlns:xlink="http://www.w3.org/1999/xlink" x="0px" y="0px" width="58px" height="58px" viewBox="0 0 600 600" enable-background="new 0 0 600 600" xml:space="preserve"><path id="color_x5F_2_7_" fill="#E77925" d="M104.072,108.497L84.988,93.97c0,0-4.182-3.393,0.13-8.674    c11.524-14.113,28.778-28.339,42.467-36.049c6.621-3.726,8.457,2.066,8.457,2.066l9.912,20.866c0,0,2.677,5.284-1.969,8.597    c-11.393,8.125-23.231,16.157-31.836,27.091C108.559,112.429,104.072,108.497,104.072,108.497z M228.907,3.755    c-18.893,5.016-37.251,10.872-54.551,18.784c-5.657,2.585-2.855,8.248-2.855,8.248l10.004,21.057c0,0,2.097,5.668,7.459,2.734    c12.702-6.951,26.799-11.653,41.267-14.827c7.818-1.717,7.232-8.054,7.232-8.054V11.28C237.462,11.28,237.697,1.424,228.907,3.755z     M50.855,126.908c-9.565,13.218-17.134,27.739-24.15,42.585c-3.53,7.47,2.348,7.792,2.348,7.792l23.692,7.27    c0,0,5.444,1.952,7.098-2.793c4.35-12.475,12.309-23.331,19.581-34.271c2.967-4.461-1.167-7.326-1.167-7.326l-18.957-14.43    C59.298,125.734,55.15,120.973,50.855,126.908z M4.885,275.6h24.173c0,0,5.633,1.467,6.43-7.235    c1.167-12.721,2.297-25.549,6.599-37.321c2.284-6.254-4.14-8.316-4.14-8.316l-21.226-6.514c0,0-6.32-3.218-8.362,4.615    c-4.096,15.724-7.437,31.893-8.341,48.477C-0.338,275.835,4.885,275.6,4.885,275.6z"></path><path id="color_x5F_1_10_" fill="#3C3F47" d="M550.145,124.908c-33.234-50.095-81.543-88.331-139.703-110.57    c-26.94-10.303-65.942-14.277-94.611,5.455c-28.113,19.351-34.012,52.571-34.012,77.032v64.717h-41.541    c-32.999,0-59.845,26.848-59.845,59.846v132.364c0,65.612,53.378,118.988,118.987,118.988c65.61,0,118.988-53.377,118.988-118.988    V221.388c0-32.999-26.846-59.846-59.846-59.846h-41.54V96.825c0-23.3,6.315-39.46,18.768-48.03    c17.448-12.011,44.347-8.359,62.081-1.574c51.27,19.603,93.782,53.195,122.939,97.147c28.777,43.38,43.988,95.82,43.987,151.657    c-0.003,146.328-119.049,265.374-265.377,265.374c-135.957,0-248.361-102.771-263.614-234.704    c-0.393-3.402-0.176-9.968-8.156-10.257c-5.013-0.181-15.083-0.566-20.068,0c-6.688,0.761-7.517,6.823-7.171,10.207    c15.393,151.411,143.607,269.957,299.008,269.957c80.288,0,155.77-31.265,212.541-88.035C568.734,451.795,600,376.314,600,296.024    C600.001,233.243,582.761,174.075,550.145,124.908z M215.636,221.388c0-13.587,11.054-24.643,24.642-24.643h41.541v64.127h-66.183    V221.388z M383.204,353.752c0,46.201-37.585,83.785-83.785,83.785c-46.199,0-83.784-37.585-83.784-83.785v-57.675h167.569V353.752z     M358.561,196.746c13.588,0,24.643,11.056,24.643,24.643v39.484h-66.183v-64.127H358.561z"></path></svg>
